<?xml version="1.0" encoding="UTF-8" standalone="no"?>
<!-- Created with Inkscape (http://www.inkscape.org/) -->

<svg
   xmlns:dc="http://purl.org/dc/elements/1.1/"
   xmlns:cc="http://creativecommons.org/ns#"
   xmlns:rdf="http://www.w3.org/1999/02/22-rdf-syntax-ns#"
   xmlns:svg="http://www.w3.org/2000/svg"
   xmlns="http://www.w3.org/2000/svg"
   xmlns:sodipodi="http://sodipodi.sourceforge.net/DTD/sodipodi-0.dtd"
   xmlns:inkscape="http://www.inkscape.org/namespaces/inkscape"
   version="1.1"
   id="svg80"
   width="128"
   height="126.4"
   viewBox="0 0 128 126.4"
   sodipodi:docname="arch-icon-1.svg"
   inkscape:version="0.92.3 (unknown)">
  <path
     style="stroke-width:0.31999999"
     d="m 0,124.8 v -1.6 h 2.70185 c 2.42926,0 2.75211,-0.0718 3.2,-0.7112 C 6.34657,121.85387 6.4,117.27062 6.4,79.752906 6.4,41.480835 6.4467,37.636768 6.92336,36.704109 7.21121,36.140848 8.47121,34.599478 9.7233597,33.278838 10.97551,31.958198 13.50495,29.150198 15.34433,27.038837 c 6.92156,-7.945003 7.77885,-8.764499 9.192811,-8.787498 1.29045,-0.02099 1.70286,-0.827519 1.70286,-3.330196 0,-2.546163 0.28696,-3.081143 1.65274,-3.081143 1.1947,0 1.57149,0.823285 1.47035,3.212713 -0.11922,2.816675 0.40649,3.187287 4.52116,3.187287 4.13295,0 4.51575,-0.261019 4.51575,-3.079182 0,-1.145591 0.14906,-2.361426 0.33125,-2.701855 0.44688,-0.834992 2.09061,-0.834992 2.53749,0 0.22266,0.416057 0.33126,12.322322 0.33126,36.32 0,35.489917 0.004,35.704893 0.6518,36.352842 0.64457,0.644569 0.88824,0.650787 21.94594,0.56 20.653677,-0.08904 21.307787,-0.110487 21.748197,-0.712967 0.38632,-0.528499 0.45406,-6.568412 0.45406,-40.488796 0,-35.5654158 -0.0538,-39.9443857 -0.49815,-40.5788401 L 85.403698,3.2 H 64.031451 c -20.2987,0 -21.39887,0.029395 -21.90186,0.5851971 -0.29128,0.3218583 -0.52959,1.0315725 -0.52959,1.5771427 0,1.7245693 -1.58754,2.6044093 -2.69715,1.4948029 -0.37681,-0.3768153 -0.50285,-1.1723392 -0.50285,-3.1738278 0,-1.469034 0.0874,-2.8987483 0.19423,-3.1771429 C 38.769081,0.050536 41.305581,0 64.000001,0 c 22.694407,0 25.230907,0.050536 25.405757,0.506172 0.10683,0.2783946 0.19424,4.163075 0.19424,8.6326229 v 8.1264511 l 0.79007,0.517674 c 0.62833,0.411702 1.44495,0.495095 3.98921,0.407377 3.98905,-0.13753 4.28411,-0.357124 4.22117,-3.14151 -0.0571,-2.524478 0.30475,-3.208787 1.696572,-3.208787 1.31338,0 1.46298,0.327558 1.46298,3.203315 0,2.37424 0.43161,3.187347 1.70286,3.208024 0.38342,0.0062 1.00158,0.186237 1.37366,0.4 0.76676,0.440506 4.15391,4.020011 7.18085,7.588661 1.11963,1.32 2.11375,2.472 2.20916,2.56 0.7469,0.688899 6.41384,7.047363 6.83691,7.671203 0.48992,0.722429 0.53656,2.816055 0.53656,24.086861 v 23.295658 l -0.8,0.364502 c -0.59845,0.272675 -1.00155,0.272675 -1.6,0 l -0.8,-0.364502 -0.001,-22.646861 C 118.398,35.203347 118.81441,38.353248 114.81049,34.08 c -1.31925,-1.408 -3.59698,-3.928 -5.06161,-5.6 -5.07869,-5.797734 -5.94442,-6.688627 -6.82512,-7.023471 C 102.42885,21.268474 99.60825,21.12 96.530368,21.12 c -4.46724,0 -5.64235,0.09412 -6.21917,0.498145 l -0.7112,0.498146 v 31.120691 c 0,26.406788 0.069,31.214784 0.45526,31.741856 0.37887,0.516944 0.79241,0.608685 2.46478,0.546807 1.38293,-0.05117 2.24601,0.0806 2.76797,0.422601 0.74869,0.490557 0.75713,0.556596 0.65522,5.126647 -0.0822,3.686505 -0.20102,4.691379 -0.58323,4.932499 -0.264,0.166544 -1.44384,0.305014 -2.62186,0.307709 -3.25011,0.0074 -3.13814,-0.366336 -3.13814,10.476099 0,8.62213 0.0302,9.07898 0.64,9.6888 0.83661,0.83662 2.89475,0.86769 3.6304,0.0548 0.41304,-0.4564 0.53067,-1.24873 0.53449,-3.6 0.003,-1.65814 0.12504,-3.20424 0.27186,-3.43578 0.21038,-0.33178 2.18607,-0.42099 9.323252,-0.42099 7.13717,0 9.11286,0.0892 9.32324,0.42099 0.14683,0.23154 0.26917,1.81681 0.27186,3.52284 0.004,2.8397 0.065,3.14395 0.7161,3.6 0.99893,0.69967 2.67626,0.63068 3.4488,-0.14186 0.61843,-0.61843 0.64,-1.06667 0.64,-13.30104 0,-8.115619 0.11892,-12.883248 0.33126,-13.279997 0.44687,-0.834992 2.09061,-0.834992 2.53748,0 0.21538,0.402432 0.33126,6.086707 0.33126,16.248797 0,13.62831 0.0638,15.72091 0.49814,16.34104 0.44789,0.63945 0.77074,0.7112 3.2,0.7112 H 128 v 1.6 1.6 H 64.000001 0 Z m 37.814801,-2.1296 c 0.76129,-0.68896 0.74602,-1.60181 -0.0338,-2.01914 -0.39789,-0.21295 -5.32003,-0.33126 -13.781031,-0.33126 -8.46101,0 -13.38315,0.11831 -13.78104,0.33126 -0.75885,0.40612 -0.79428,1.18462 -0.0894,1.96354 0.49686,0.54903 1.35071,0.5852 13.8148,0.5852 11.912961,0 13.345651,-0.0547 13.870411,-0.5296 z m 16,0 c 0.76129,-0.68896 0.74602,-1.60181 -0.0338,-2.01914 -0.35329,-0.18908 -2.83464,-0.33126 -5.78103,-0.33126 -2.9464,0 -5.42775,0.14218 -5.78104,0.33126 -0.75885,0.40612 -0.79428,1.18462 -0.0894,1.96354 0.47234,0.52194 1.10097,0.5852 5.8148,0.5852 4.46888,0 5.3756,-0.0818 5.8704,-0.5296 z m 7.9452,0.21688 c 0.39968,-0.25224 0.50677,-1.70081 0.64,-8.65722 0.088,-4.59487 0.0566,-8.63234 -0.0697,-8.97218 -0.19094,-0.51362 -0.5446,-0.61788 -2.096,-0.61788 -1.02647,0 -2.03911,0.1728 -2.25031,0.384 -0.27865,0.27865 -0.384,2.62951 -0.384,8.5688 0,9.43778 0.0421,9.61068 2.33814,9.6023 0.73802,-0.003 1.55786,-0.14122 1.82186,-0.30782 z m 8.14185,-0.39848 c 0.41934,-0.59869 0.49815,-2.00603 0.49815,-8.896 0,-5.93929 -0.10535,-8.29015 -0.384,-8.5688 -0.2112,-0.2112 -1.22384,-0.384 -2.25031,-0.384 -1.55141,0 -1.90507,0.10426 -2.096,0.61788 -0.12633,0.33984 -0.15769,4.37731 -0.0697,8.97218 0.17834,9.31209 0.0806,8.95634 2.46185,8.96504 1.02729,0.004 1.45863,-0.16182 1.84,-0.7063 z m 15.912947,0.1816 c 0.71761,-0.64943 0.74163,-1.18826 0.0823,-1.84754 -0.41737,-0.41737 -1.41992,-0.50286 -5.897137,-0.50286 -4.47723,0 -5.47978,0.0855 -5.89715,0.50286 -0.64072,0.64071 -0.63444,1.06135 0.0267,1.79194 0.47235,0.52194 1.10098,0.5852 5.81481,0.5852 4.468867,0 5.375587,-0.0818 5.870397,-0.5296 z m 32.084452,-0.0875 c 0.6957,-0.76875 0.41991,-1.80403 -0.54985,-2.06401 -0.39017,-0.1046 -6.56712,-0.19215 -13.72654,-0.19455 -11.410962,-0.004 -13.079202,0.0577 -13.520012,0.49849 -0.64072,0.64071 -0.63444,1.06135 0.0267,1.79194 0.49692,0.54911 1.35243,0.5852 13.870402,0.5852 12.76915,0 13.36474,-0.0264 13.89925,-0.61707 z M 13.89714,116.61714 c 0.38708,-0.38708 0.50398,-1.21592 0.50776,-3.6 0.003,-1.70342 0.12357,-3.28422 0.26861,-3.51288 0.3849,-0.60679 18.268071,-0.60679 18.652981,0 0.14504,0.22866 0.26591,1.80946 0.26861,3.51288 0.006,3.64972 0.2719,4.10286 2.40961,4.10286 2.38512,0 2.39529,-0.0442 2.39529,-10.4 0,-10.794362 0.12175,-10.4 -3.21077,-10.4 -3.00311,0 -3.13128,-0.220102 -3.17265,-5.448496 -0.0403,-5.094858 0.0638,-5.275606 2.9776,-5.168026 1.75373,0.06475 2.21311,-0.03078 2.75522,-0.572886 0.64522,-0.645219 0.6506,-0.908045 0.6506,-31.832448 V 22.116291 l -0.71121,-0.498146 C 37.111601,21.213862 35.933901,21.12 31.438521,21.12 c -5.99948,0 -7.15194,0.234788 -8.263061,1.68341 -0.83469,1.088234 -4.72072,5.467374 -8.30299,9.35659 -3.49651,3.796102 -4.41292,4.883283 -4.9049303,5.818963 -0.27082,0.515015 -0.36754,10.833754 -0.36754,39.208797 0,43.322 -0.2033397,39.93224 2.3952803,39.93224 0.84515,0 1.59808,-0.19908 1.90186,-0.50286 z M 14.784,104.256 c -0.86807,-0.86807 0.0113,-3.136 1.216,-3.136 0.71708,0 1.6,1.15177 1.6,2.0872 0,0.89881 -0.59631,1.4328 -1.6,1.4328 -0.4576,0 -1.0048,-0.1728 -1.216,-0.384 z m 8.176,0.0384 c -0.64328,-0.37468 -0.75158,-1.89479 -0.176,-2.47037 0.2112,-0.2112 0.7584,-0.384 1.216,-0.384 1.072481,0 1.600001,0.54491 1.600001,1.65274 0,1.30123 -1.38594,1.93205 -2.640001,1.20163 z m 7.824001,-0.0384 c -0.86807,-0.86807 0.0113,-3.136 1.216,-3.136 0.71708,0 1.6,1.15177 1.6,2.0872 0,0.89881 -0.59631,1.4328 -1.6,1.4328 -0.4576,0 -1.0048,-0.1728 -1.216,-0.384 z M 14.784,94.016 c -0.64503,-0.645024 -0.44125,-1.803741 0.416,-2.365427 0.74107,-0.485571 0.85892,-0.485571 1.6,0 C 18.21693,92.578986 17.68707,94.4 16,94.4 c -0.4576,0 -1.0048,-0.1728 -1.216,-0.384 z m 8,0 c -0.4936,-0.4936 -0.4936,-1.6184 0,-2.112 0.2112,-0.2112 0.7584,-0.384 1.216,-0.384 1.006241,0 1.600001,0.534384 1.600001,1.44 0,0.905616 -0.59376,1.44 -1.600001,1.44 -0.4576,0 -1.0048,-0.1728 -1.216,-0.384 z M 14.66177,83.68 c -0.56163,-1.232637 0.0893,-2.4 1.33823,-2.4 0.7281,0 1.06566,0.201798 1.33822,0.8 0.56163,1.232637 -0.0893,2.4 -1.33822,2.4 -0.72811,0 -1.06567,-0.201798 -1.33823,-0.8 z M 22.96,84.134368 c -0.88514,-0.515542 -0.73394,-2.148838 0.24,-2.592592 1.223501,-0.557466 2.400001,0.08966 2.400001,1.320106 0,1.372342 -1.35075,2.023408 -2.640001,1.272486 z m 7.942851,-5.917226 c -0.59681,-0.596816 -0.65733,-1.774662 -0.11885,-2.313142 0.2112,-0.2112 0.7584,-0.384 1.216,-0.384 0.4576,0 1.0048,0.1728 1.216,0.384 0.90498,0.904982 0.0798,2.816 -1.216,2.816 -0.32686,0 -0.82058,-0.226285 -1.09715,-0.502858 z M 15.04,74.24 C 14.273,73.473002 14.21008,72.235632 14.90285,71.542858 15.9402,70.505507 17.6,71.293206 17.6,72.822858 17.6,73.5996 16.60413,74.88 16,74.88 c -0.176,0 -0.608,-0.288 -0.96,-0.64 z m 7.86285,-0.182858 C 22.30604,73.460326 22.24552,72.28248 22.784,71.744 22.9952,71.5328 23.5424,71.36 24,71.36 c 0.457601,0 1.004801,0.1728 1.216001,0.384 0.90498,0.904982 0.0798,2.816 -1.216001,2.816 -0.32686,0 -0.82058,-0.226285 -1.09715,-0.502858 z m 7.949251,-6.054809 c -0.98872,-1.508976 0.11598,-3.092979 1.78715,-2.56257 1.42416,0.452013 0.8709,3.360237 -0.63925,3.360237 -0.34389,0 -0.86044,-0.35895 -1.1479,-0.797667 z M 15.04,64.64 c -0.352,-0.352 -0.64,-1 -0.64,-1.44 0,-0.795187 0.98831,-2.08 1.6,-2.08 0.61168,0 1.6,1.284813 1.6,2.08 0,0.795187 -0.98832,2.08 -1.6,2.08 -0.176,0 -0.608,-0.288 -0.96,-0.64 z m 7.6159,-0.492893 c -0.25148,-0.551936 -0.27249,-1.091254 -0.0654,-1.68 C 22.84245,61.750659 23.08736,61.6 24.00003,61.6 c 0.912661,0 1.157571,0.150659 1.409531,0.867107 0.46908,1.333811 -0.18629,2.492893 -1.409531,2.492893 -0.73222,0 -1.06559,-0.201613 -1.3441,-0.812893 z m 8.461821,-5.333456 c -0.59171,-0.712969 -0.78899,-2.082569 -0.40367,-2.802534 0.54236,-1.013408 2.2882,-0.795072 2.68319,0.335558 0.57964,1.659194 -1.27981,3.671552 -2.27952,2.466976 z M 15.1112,54.861856 C 14.70624,54.578211 14.4,54.027043 14.4,53.581856 14.4,52.801312 15.39429,51.52 16,51.52 c 0.60413,0 1.6,1.2804 1.6,2.057142 0,0.824516 -0.74806,1.782858 -1.39166,1.782858 -0.21227,0 -0.70598,-0.224166 -1.09714,-0.498144 z M 22.784,54.656 C 21.87901,53.751018 22.7042,51.84 24,51.84 c 1.295771,0 2.120981,1.911018 1.216001,2.816 -0.2112,0.2112 -0.7584,0.384 -1.216001,0.384 -0.4576,0 -1.0048,-0.1728 -1.216,-0.384 z m 7.922661,-5.872064 c -0.2991,-0.360397 -0.33169,-0.819843 -0.11918,-1.68 0.26783,-1.084019 0.38704,-1.183936 1.41252,-1.183936 1.02547,0 1.14468,0.09992 1.41251,1.183936 0.35602,1.441002 -0.12112,2.176064 -1.41251,2.176064 -0.4849,0 -1.0669,-0.223229 -1.29334,-0.496064 z M 14.66177,44.32 c -0.56163,-1.232637 0.0893,-2.4 1.33823,-2.4 1.24893,0 1.89985,1.167363 1.33822,2.4 -0.27256,0.598202 -0.61012,0.8 -1.33822,0.8 -0.72811,0 -1.06567,-0.201798 -1.33823,-0.8 z M 22.96,44.774368 C 21.8102,44.104675 22.6062,41.92 24,41.92 c 1.433151,0 2.192471,2.2204 0.981031,2.868742 -0.76679,0.410372 -1.298281,0.406592 -2.021031,-0.01437 z m 7.942851,-5.917226 c -0.27657,-0.276569 -0.50285,-0.748531 -0.50285,-1.048796 0,-0.832989 0.92289,-1.968346 1.6,-1.968346 0.6771,0 1.6,1.135357 1.6,1.968346 0,0.721472 -0.85605,1.551654 -1.6,1.551654 -0.32686,0 -0.82058,-0.226285 -1.09715,-0.502858 z M 22.784,34.496 c -0.4936,-0.4936 -0.4936,-1.6184 0,-2.112 C 22.9952,32.1728 23.5424,32 24,32 c 1.006241,0 1.600001,0.534384 1.600001,1.44 0,0.3696 -0.1728,0.8448 -0.384,1.056 -0.49502,0.495014 -1.936991,0.495014 -2.432001,0 z m 7.947251,-5.994963 c -0.48561,-0.907371 -0.4085,-1.451941 0.29585,-2.089368 1.36091,-1.231604 3.15586,0.381132 2.26885,2.038526 -0.47266,0.883159 -2.10197,0.915459 -2.5647,0.05084 z m -1.03768,88.346783 c 0.99625,-0.63202 1.00318,-3.93975 0.01,-4.56973 -0.23276,-0.14756 -2.79917,-0.26829 -5.703171,-0.26829 -2.904,0 -5.47042,0.12073 -5.70315,0.26829 -0.99361,0.62998 -0.98668,3.93771 0.01,4.56973 0.22747,0.14431 2.78958,0.26238 5.69358,0.26238 2.904001,0 5.466111,-0.11807 5.693571,-0.26238 z m 24.20828,-0.43902 c 0.41192,-0.58811 0.49815,-1.85806 0.49815,-7.33715 0,-5.59691 0.0781,-6.70403 0.50285,-7.12879 0.75529,-0.75529 17.439,-0.75529 18.19429,0 0.42476,0.42476 0.50286,1.53188 0.50286,7.12879 0,5.47909 0.0862,6.74904 0.49814,7.33715 0.48133,0.68719 0.68057,0.7112 5.90186,0.7112 5.221277,0 5.420517,-0.024 5.901847,-0.7112 0.42212,-0.60267 0.49815,-2.08128 0.49815,-9.6888 0,-7.607517 -0.076,-9.086134 -0.49815,-9.688797 L 85.403698,96.32 H 64.000001 42.596291 l -0.49815,0.711203 c -0.42212,0.602663 -0.49814,2.08128 -0.49814,9.688797 0,7.60752 0.076,9.08613 0.49814,9.6888 0.48133,0.68719 0.68057,0.7112 5.90186,0.7112 5.22128,0 5.42052,-0.024 5.90185,-0.7112 z m -6.97226,-4.674 c -0.43753,-0.48347 -0.52959,-1.33331 -0.52959,-4.88879 0,-4.58284 0.31943,-5.72601 1.6,-5.72601 1.28449,0 1.6,1.14009 1.6,5.78161 0,3.81672 -0.0728,4.4251 -0.5852,4.88879 -0.7606,0.68834 -1.42806,0.67054 -2.08521,-0.0556 z m 32,0 c -0.43753,-0.48347 -0.52959,-1.33331 -0.52959,-4.88879 0,-4.58284 0.31943,-5.72601 1.6,-5.72601 1.28449,0 1.6,1.14009 1.6,5.78161 0,3.81672 -0.0728,4.4251 -0.5852,4.88879 -0.7606,0.68834 -1.42806,0.67054 -2.08521,-0.0556 z m 30.885209,4.8556 c 0.41281,-0.37358 0.5852,-0.98416 0.5852,-2.07262 0,-2.43168 -0.42296,-2.58312 -6.86941,-2.45961 -5.970132,0.11438 -5.917442,0.0924 -5.925702,2.47663 -0.009,2.48098 0.24698,2.5852 6.339512,2.5852 4.46888,0 5.37559,-0.0818 5.8704,-0.5296 z M 92.321268,92.372464 c 0.53597,-0.733101 0.27774,-2.775805 -0.42129,-3.332464 -0.39308,-0.313021 -6.49947,-0.4 -28.081957,-0.4 -21.68285,0 -27.64683,0.08552 -27.89381,0.4 -0.43655,0.55584 -0.747,2.368275 -0.511,2.983277 0.10769,0.280653 0.49978,0.634345 0.8713,0.785981 0.37152,0.151638 13.03512,0.247587 28.14134,0.213222 26.239087,-0.05969 27.485037,-0.08872 27.895417,-0.650016 z m 2.46273,11.883536 c -0.86807,-0.86807 0.0113,-3.136 1.216,-3.136 0.71708,0 1.6,1.15177 1.6,2.0872 0,0.89881 -0.59631,1.4328 -1.6,1.4328 -0.4576,0 -1.0048,-0.1728 -1.216,-0.384 z m 8.176002,0.0384 c -0.64328,-0.37468 -0.75158,-1.89479 -0.176,-2.47037 0.2112,-0.2112 0.7584,-0.384 1.216,-0.384 0.4576,0 1.0048,0.1728 1.216,0.384 0.2112,0.2112 0.384,0.7584 0.384,1.216 0,1.44229 -1.27624,2.04868 -2.64,1.25437 z m 7.824,-0.0384 c -0.86807,-0.86807 0.0113,-3.136 1.216,-3.136 0.71708,0 1.6,1.15177 1.6,2.0872 0,0.89881 -0.59631,1.4328 -1.6,1.4328 -0.4576,0 -1.0048,-0.1728 -1.216,-0.384 z m 0.3272,-10.034144 c -0.86259,-0.604179 -0.92164,-1.772218 -0.126,-2.492259 0.7606,-0.688336 1.42806,-0.670541 2.0852,0.0556 0.73747,0.814889 0.66056,1.846784 -0.1816,2.436659 C 112.49764,94.495834 112.09768,94.72 112,94.72 c -0.0977,0 -0.49764,-0.224166 -0.8888,-0.498144 z M 102.784,94.016 c -0.2112,-0.2112 -0.384,-0.6864 -0.384,-1.056 0,-0.905616 0.59376,-1.44 1.6,-1.44 1.00624,0 1.6,0.534384 1.6,1.44 0,0.905616 -0.59376,1.44 -1.6,1.44 -0.4576,0 -1.0048,-0.1728 -1.216,-0.384 z m 0.176,-9.881632 c -0.88513,-0.515542 -0.73394,-2.148838 0.24,-2.592592 1.2235,-0.557466 2.4,0.08966 2.4,1.320106 0,1.372342 -1.35075,2.023408 -2.64,1.272486 z m 7.78126,-0.254643 c -0.80148,-1.497584 -0.1018,-2.727063 1.44711,-2.542848 1.16296,0.138313 1.63524,0.937053 1.23356,2.086237 -0.40644,1.162812 -2.1443,1.458828 -2.68067,0.456611 z M 79.305001,80.628362 c -0.7037,-0.410615 -1.03956,-2.019015 -0.59505,-2.849594 0.23275,-0.434886 0.67117,-0.658768 1.29005,-0.658768 0.61888,0 1.05729,0.223882 1.29004,0.658768 0.46151,0.862342 0.0956,2.462173 -0.65502,2.863894 -0.70567,0.377668 -0.65739,0.378186 -1.33002,-0.0143 z M 46.683961,79.76 c -0.20772,-0.537312 -0.23279,-1.191533 -0.0644,-1.68 0.22257,-0.645555 0.48907,-0.8 1.38041,-0.8 0.89134,0 1.15784,0.154445 1.38041,0.8 0.16842,0.488467 0.14335,1.142688 -0.0644,1.68 -0.268,0.693248 -0.54729,0.88 -1.31603,0.88 -0.76875,0 -1.04804,-0.186752 -1.31604,-0.88 z m 8.21889,0.377142 c -0.27657,-0.276569 -0.50285,-0.927657 -0.50285,-1.44686 0,-1.218615 1.18241,-1.86328 2.4,-1.308506 1.44731,0.65944 0.80922,3.258224 -0.8,3.258224 -0.32686,0 -0.82058,-0.226285 -1.09715,-0.502858 z M 62.683961,79.76 c -0.20772,-0.537312 -0.23279,-1.191533 -0.0644,-1.68 0.22257,-0.645555 0.48907,-0.8 1.38041,-0.8 0.89134,0 1.15784,0.154445 1.38041,0.8 0.16842,0.488467 0.14335,1.142688 -0.0644,1.68 -0.268,0.693248 -0.54729,0.88 -1.31603,0.88 -0.76875,0 -1.04804,-0.186752 -1.31604,-0.88 z m 8.21889,0.377142 c -0.27657,-0.276569 -0.50285,-0.927657 -0.50285,-1.44686 0,-1.218615 1.18241,-1.86328 2.4,-1.308506 1.44731,0.65944 0.80922,3.258224 -0.8,3.258224 -0.32686,0 -0.82058,-0.226285 -1.09715,-0.502858 z m 23.999997,-1.92 c -0.59681,-0.596816 -0.65733,-1.774662 -0.11885,-2.313142 0.2112,-0.2112 0.7584,-0.384 1.216,-0.384 0.4576,0 1.0048,0.1728 1.216,0.384 0.90498,0.904982 0.0798,2.816 -1.216,2.816 -0.32686,0 -0.82058,-0.226285 -1.09715,-0.502858 z m 15.995292,-4.048345 c -1.32881,-1.897152 0.61116,-4.213779 2.199,-2.625939 0.64043,0.640428 0.64236,1.715571 0.005,2.625939 -0.63653,0.908761 -1.56719,0.908761 -2.20372,0 z m -8.18661,-0.264621 c -0.19304,-0.360704 -0.30611,-1.044704 -0.25126,-1.52 C 102.55217,71.588077 102.67344,71.52 104,71.52 c 1.32656,0 1.44786,0.06808 1.53973,0.864176 C 105.6923,73.706246 105.08814,74.56 104,74.56 c -0.61752,0 -1.05728,-0.223834 -1.28847,-0.655824 z m -56.035499,-3.63287 c -0.41783,-0.91704 -0.0212,-2.379562 0.78301,-2.886807 1.1877,-0.749184 2.55631,1.36936 1.86492,2.886807 -0.25809,0.566444 -0.60644,0.768694 -1.32396,0.768694 -0.71753,0 -1.06588,-0.20225 -1.32397,-0.768694 z m 8.28397,0.423062 c -1.24837,-0.727107 -0.44659,-3.174368 1.04,-3.174368 1.03646,0 1.6,0.721226 1.6,2.047702 0,1.226228 -1.42497,1.834356 -2.64,1.126666 z m 7.6959,-0.467261 c -0.4367,-0.958451 -0.0656,-2.298976 0.7841,-2.832323 1.22733,-0.770394 2.60911,1.284986 1.90409,2.832323 -0.27851,0.61128 -0.61187,0.812893 -1.34409,0.812893 -0.73223,0 -1.06559,-0.201613 -1.3441,-0.812893 z m 8.3041,0.467261 c -1.24837,-0.727107 -0.44659,-3.174368 1.04,-3.174368 1.03646,0 1.6,0.721226 1.6,2.047702 0,1.226228 -1.42497,1.834356 -2.64,1.126666 z m 7.6959,-0.467261 c -0.4367,-0.958451 -0.0656,-2.298976 0.7841,-2.832323 1.22733,-0.770394 2.60911,1.284986 1.90409,2.832323 -0.27851,0.61128 -0.61187,0.812893 -1.34409,0.812893 -0.73223,0 -1.06559,-0.201613 -1.3441,-0.812893 z m 16.273687,-2.012304 c -1.35985,-1.502621 0.042,-3.506089 1.87041,-2.673027 0.97862,0.445888 1.09557,1.931539 0.2148,2.728627 -0.7606,0.688336 -1.42806,0.670541 -2.08521,-0.0556 z M 110.89814,64.568797 C 110.62417,64.177638 110.4,63.561677 110.4,63.2 c 0,-0.929203 0.88523,-2.08 1.6,-2.08 0.71477,0 1.6,1.150797 1.6,2.08 0,0.929203 -0.88523,2.08 -1.6,2.08 -0.33204,0 -0.82788,-0.320042 -1.10186,-0.711203 z m -8.11414,0.0072 c -0.2112,-0.2112 -0.384,-0.8304 -0.384,-1.376 0,-1.210454 0.49959,-1.76 1.6,-1.76 1.10041,0 1.6,0.549546 1.6,1.76 0,1.210454 -0.49959,1.76 -1.6,1.76 -0.4576,0 -1.0048,-0.1728 -1.216,-0.384 z M 46.902851,60.617139 c -0.27657,-0.276569 -0.50285,-0.748531 -0.50285,-1.048796 0,-0.832989 0.92289,-1.968346 1.6,-1.968346 0.6771,0 1.6,1.135357 1.6,1.968346 0,0.721472 -0.85605,1.551654 -1.6,1.551654 -0.32686,0 -0.82058,-0.226285 -1.09715,-0.502858 z m 8.21715,0.172887 c -0.50907,-0.204621 -0.72,-0.554922 -0.72,-1.195719 0,-1.128435 0.52164,-1.67431 1.6,-1.67431 1.0777,0 1.6,0.545766 1.6,1.67192 0,0.675856 -0.20711,0.982659 -0.82084,1.216 -0.45145,0.171645 -0.84745,0.302954 -0.88,0.291795 -0.0325,-0.01117 -0.38316,-0.150515 -0.77916,-0.309686 z m 7.78285,-0.172887 c -0.27657,-0.276569 -0.50285,-0.748531 -0.50285,-1.048796 0,-0.832989 0.92289,-1.968346 1.6,-1.968346 0.6771,0 1.6,1.135357 1.6,1.968346 0,0.721472 -0.85605,1.551654 -1.6,1.551654 -0.32686,0 -0.82058,-0.226285 -1.09715,-0.502858 z m 8.21715,0.172887 c -1.03846,-0.417408 -0.99114,-2.037619 0.08,-2.739456 0.74107,-0.485571 0.85892,-0.485571 1.6,0 1.12905,0.739782 1.11707,2.324717 -0.0208,2.757347 -0.45146,0.171645 -0.84746,0.302954 -0.88,0.291795 -0.0326,-0.01117 -0.38317,-0.150515 -0.77917,-0.309686 z m 7.78285,-0.172887 c -0.67435,-0.674345 -0.63584,-1.8376 0.0823,-2.487545 0.7606,-0.688336 1.42806,-0.670541 2.08521,0.0556 1.00624,1.111878 0.34137,2.934803 -1.0704,2.934803 -0.32686,0 -0.82058,-0.226285 -1.09715,-0.502858 z m 16.008037,-2.110137 c -1.06096,-1.514736 -0.34358,-3.277975 1.259,-3.094458 1.25318,0.143507 1.79165,1.512986 1.08884,2.769235 -0.62777,1.122141 -1.68689,1.268848 -2.34784,0.325223 z m 15.991972,-3.649863 c -0.64043,-0.640428 -0.64236,-1.715571 -0.005,-2.625939 0.63653,-0.908761 1.56719,-0.908761 2.20372,0 0.94723,1.351965 0.32149,3.128797 -1.10158,3.128797 -0.32686,0 -0.82057,-0.226285 -1.09714,-0.502858 z m -8.27447,-0.01542 c -0.33569,-0.335689 -0.27804,-1.671027 0.10287,-2.382761 0.45843,-0.856583 2.09165,-0.83304 2.55721,0.03686 0.19304,0.360704 0.30611,1.044704 0.25126,1.52 -0.0878,0.760668 -0.25443,0.875561 -1.39134,0.959232 -0.71038,0.05228 -1.39438,-0.0077 -1.52,-0.133332 z M 46.784001,50.495997 c -0.90499,-0.904982 -0.0798,-2.816 1.216,-2.816 1.29577,0 2.12098,1.911018 1.216,2.816 -0.2112,0.2112 -0.7584,0.384 -1.216,0.384 -0.4576,0 -1.0048,-0.1728 -1.216,-0.384 z m 8,0 c -0.2112,-0.2112 -0.384,-0.6864 -0.384,-1.056 0,-0.905616 0.59376,-1.44 1.6,-1.44 1.00624,0 1.6,0.534384 1.6,1.44 0,0.905616 -0.59376,1.44 -1.6,1.44 -0.4576,0 -1.0048,-0.1728 -1.216,-0.384 z m 8,0 c -0.90499,-0.904982 -0.0798,-2.816 1.216,-2.816 1.29577,0 2.12098,1.911018 1.216,2.816 -0.2112,0.2112 -0.7584,0.384 -1.216,0.384 -0.4576,0 -1.0048,-0.1728 -1.216,-0.384 z m 8,0 c -0.2112,-0.2112 -0.384,-0.6864 -0.384,-1.056 0,-0.905616 0.59376,-1.44 1.6,-1.44 1.00624,0 1.6,0.534384 1.6,1.44 0,0.905616 -0.59376,1.44 -1.6,1.44 -0.4576,0 -1.0048,-0.1728 -1.216,-0.384 z m 8,0 c -0.90499,-0.904982 -0.0798,-2.816 1.216,-2.816 1.29577,0 2.12098,1.911018 1.216,2.816 -0.2112,0.2112 -0.7584,0.384 -1.216,0.384 -0.4576,0 -1.0048,-0.1728 -1.216,-0.384 z M 95.009348,48.99953 c -0.66236,-0.536349 -0.70886,-0.732823 -0.43545,-1.84 0.28275,-1.144973 0.39154,-1.239533 1.4261,-1.239533 1.03455,0 1.14335,0.09456 1.42609,1.239533 0.27341,1.107177 0.22691,1.303651 -0.43545,1.84 -0.40785,0.330256 -0.85364,0.600467 -0.99064,0.600467 -0.13701,0 -0.5828,-0.270211 -0.99065,-0.600467 z M 102.96,44.774365 c -0.88513,-0.515542 -0.73394,-2.148838 0.24,-2.592592 1.2235,-0.557466 2.4,0.08966 2.4,1.320106 0,1.372342 -1.35075,2.023408 -2.64,1.272486 z m 7.83843,-0.02394 c -1.03891,-1.038909 -0.0973,-2.946074 1.37146,-2.777878 1.10758,0.126835 1.80524,1.518304 1.22555,2.444339 -0.41724,0.666521 -2.05384,0.876713 -2.59701,0.333539 z M 46.741261,40.359722 c -0.80149,-1.497584 -0.1018,-2.727063 1.44711,-2.542848 1.16295,0.138313 1.63524,0.937053 1.23356,2.086237 -0.40644,1.162812 -2.1443,1.458828 -2.68067,0.456611 z m 8.16159,0.09742 c -1.33829,-1.338294 0.14,-3.235977 1.89715,-2.435369 1.39874,0.637312 0.77227,2.938224 -0.8,2.938224 -0.32686,0 -0.82058,-0.226285 -1.09715,-0.502858 z m 7.83841,-0.09742 c -0.80149,-1.497584 -0.1018,-2.727063 1.44711,-2.542848 1.16295,0.138313 1.63524,0.937053 1.23356,2.086237 -0.40644,1.162812 -2.1443,1.458828 -2.68067,0.456611 z m 8.16159,0.09742 c -1.33829,-1.338294 0.14,-3.235977 1.89715,-2.435369 1.39874,0.637312 0.77227,2.938224 -0.8,2.938224 -0.32686,0 -0.82058,-0.226285 -1.09715,-0.502858 z m 7.83841,-0.09742 c -0.80149,-1.497584 -0.1018,-2.727063 1.44711,-2.542848 1.16295,0.138313 1.63524,0.937053 1.23356,2.086237 -0.40644,1.162812 -2.1443,1.458828 -2.68067,0.456611 z m 16.161587,-1.502583 c -0.67435,-0.674345 -0.63584,-1.8376 0.0823,-2.487545 0.73494,-0.665111 1.46435,-0.674346 2.11195,-0.02675 1.02354,1.023553 0.2986,3.017153 -1.09714,3.017153 -0.32686,0 -0.82058,-0.226285 -1.09715,-0.502858 z M 102.784,34.495997 c -0.2112,-0.2112 -0.384,-0.6864 -0.384,-1.056 0,-0.905616 0.59376,-1.44 1.6,-1.44 1.00624,0 1.6,0.534384 1.6,1.44 0,0.3696 -0.1728,0.8448 -0.384,1.056 -0.49501,0.495014 -1.93699,0.495014 -2.432,0 z M 46.898141,30.648795 c -0.63765,-0.910369 -0.63572,-1.985511 0.005,-2.625941 1.58784,-1.587839 3.52781,0.728789 2.199,2.625941 -0.63652,0.908762 -1.56719,0.908762 -2.20371,0 z m 16,0 c -0.63765,-0.910369 -0.63572,-1.985511 0.005,-2.625941 1.58784,-1.587839 3.52781,0.728789 2.199,2.625941 -0.63652,0.908762 -1.56719,0.908762 -2.20371,0 z m 16,0 c -0.63765,-0.910369 -0.63572,-1.985511 0.005,-2.625941 1.58784,-1.587839 3.52781,0.728789 2.199,2.625941 -0.63652,0.908762 -1.56719,0.908762 -2.20371,0 z m -24.18661,-0.264623 c -0.19305,-0.360704 -0.30611,-1.044704 -0.25126,-1.52 0.0919,-0.796099 0.21316,-0.864175 1.53973,-0.864175 1.32656,0 1.44785,0.06808 1.53972,0.864175 0.15257,1.32207 -0.45159,2.175825 -1.53972,2.175825 -0.61752,0 -1.05728,-0.223835 -1.28847,-0.655825 z m 16,0 c -0.19305,-0.360704 -0.30611,-1.044704 -0.25126,-1.52 0.0919,-0.796099 0.21316,-0.864175 1.53973,-0.864175 1.32656,0 1.44785,0.06808 1.53972,0.864175 0.15257,1.32207 -0.45159,2.175825 -1.53972,2.175825 -0.61752,0 -1.05728,-0.223835 -1.28847,-0.655825 z m 24.072467,-1.648175 c -0.90499,-0.904982 -0.0798,-2.816 1.216,-2.816 1.29577,0 2.12098,1.911018 1.216,2.816 -0.49502,0.495014 -1.93699,0.495014 -2.432,0 z M 46.731591,20.670499 c -0.16091,-0.423224 -0.18298,-1.179224 -0.0491,-1.68 0.20632,-0.771434 0.40755,-0.910502 1.31747,-0.910502 0.90992,0 1.11114,0.139068 1.31745,0.910502 0.38439,1.437249 -0.16005,2.449498 -1.31745,2.449498 -0.73614,0 -1.04771,-0.189016 -1.26841,-0.769498 z m 8.17126,0.266641 c -0.67435,-0.674347 -0.63584,-1.837601 0.0823,-2.487547 0.7606,-0.688336 1.42806,-0.670538 2.08521,0.0556 1.00624,1.11188 0.34137,2.934804 -1.0704,2.934804 -0.32686,0 -0.82058,-0.226286 -1.09715,-0.502857 z m 7.77318,-0.265838 c -0.23358,-0.512659 -0.24906,-1.072233 -0.0465,-1.68 0.25291,-0.758725 0.48236,-0.911305 1.37044,-0.911305 0.88807,0 1.11752,0.15258 1.37043,0.911305 0.45755,1.372633 -0.14468,2.448695 -1.37043,2.448695 -0.71753,0 -1.06588,-0.20225 -1.32397,-0.768695 z m 8.22682,0.265838 c -0.67435,-0.674347 -0.63584,-1.837601 0.0823,-2.487547 0.7606,-0.688336 1.42806,-0.670538 2.08521,0.0556 1.00624,1.11188 0.34137,2.934804 -1.0704,2.934804 -0.32686,0 -0.82058,-0.226286 -1.09715,-0.502857 z m 7.77318,-0.265838 c -0.23358,-0.512659 -0.24906,-1.072233 -0.0465,-1.68 0.25291,-0.758725 0.48236,-0.911305 1.37044,-0.911305 0.88807,0 1.11752,0.15258 1.37043,0.911305 0.45755,1.372633 -0.14468,2.448695 -1.37043,2.448695 -0.71753,0 -1.06588,-0.20225 -1.32397,-0.768695 z m -31.89203,-9.535305 c -0.86807,-0.868068 0.0113,-3.136 1.216,-3.136 0.71708,0 1.6,1.1517674 1.6,2.087202 0,0.898806 -0.59631,1.432798 -1.6,1.432798 -0.4576,0 -1.0048,-0.1728 -1.216,-0.384 z m 8.01442,0.01443 c -1.03891,-1.03891 -0.0973,-2.9460753 1.37147,-2.7778782 1.10757,0.1268333 1.80523,1.5183046 1.22555,2.4443382 -0.41724,0.666522 -2.05384,0.876715 -2.59702,0.33354 z m 7.98558,-0.01443 c -0.86807,-0.868068 0.0113,-3.136 1.216,-3.136 0.71708,0 1.6,1.1517674 1.6,2.087202 0,0.898806 -0.59631,1.432798 -1.6,1.432798 -0.4576,0 -1.0048,-0.1728 -1.216,-0.384 z m 8.01442,0.01443 c -1.03891,-1.03891 -0.0973,-2.9460753 1.37147,-2.7778782 1.10757,0.1268333 1.80523,1.5183046 1.22555,2.4443382 -0.41724,0.666522 -2.05384,0.876715 -2.59702,0.33354 z m 7.98558,-0.01443 c -0.86807,-0.868068 0.0113,-3.136 1.216,-3.136 0.71708,0 1.6,1.1517674 1.6,2.087202 0,0.898806 -0.59631,1.432798 -1.6,1.432798 -0.4576,0 -1.0048,-0.1728 -1.216,-0.384 z"
     id="path90"
     inkscape:connector-curvature="0" />
</svg>
