<?xml version="1.0" encoding="UTF-8" standalone="no"?>
<!-- Created with Inkscape (http://www.inkscape.org/) -->

<svg
   xmlns:dc="http://purl.org/dc/elements/1.1/"
   xmlns:cc="http://creativecommons.org/ns#"
   xmlns:rdf="http://www.w3.org/1999/02/22-rdf-syntax-ns#"
   xmlns:svg="http://www.w3.org/2000/svg"
   xmlns="http://www.w3.org/2000/svg"
   xmlns:sodipodi="http://sodipodi.sourceforge.net/DTD/sodipodi-0.dtd"
   xmlns:inkscape="http://www.inkscape.org/namespaces/inkscape"
   version="1.1"
   id="svg138"
   width="32"
   height="24.32"
   viewBox="0 0 32 24.32"
   sodipodi:docname="char-icon-2.svg"
   inkscape:version="0.92.3 (unknown)">
  <path
     style="stroke-width:0.31999999"
     d="M 0,17.6 V 10.88 L 0.72,10.83711 C 1.116,10.81352 2.539361,10.82751 3.883025,10.86816 7.585579,10.980213 7.68,10.88235 7.68,6.9327411 7.68,4.8046093 7.544787,3.5127875 7.296,3.264 7.04474,3.0127407 5.717333,2.88 3.456,2.88 H 0 V 1.44 0 h 16 16 v 6.8972054 6.8972056 l -3.548874,-0.06937 c -2.766141,-0.05407 -3.612003,0.03036 -3.8351,0.382795 -0.157424,0.248691 -0.288431,1.851099 -0.291126,3.560907 -0.006,3.811537 0.115729,3.925269 3.971742,3.710555 3.619656,-0.201555 3.703357,-0.167106 3.703357,1.524166 V 24.32 H 16 0 Z m 20.937143,3.337143 c 0.384927,-0.384927 0.501708,-1.191675 0.497957,-3.44 -0.0027,-1.615429 -0.117288,-3.11406 -0.254652,-3.330293 -0.182532,-0.287335 -2.541685,-0.439934 -8.765273,-0.566971 -7.5152,-0.153401 -8.57541,-0.11393 -9.025348,0.336008 -0.7298,0.7298 -0.735318,6.272908 -0.007,7.001256 0.754628,0.754628 16.799659,0.754628 17.554286,0 z m 7.73403,-10.723014 C 29.345898,9.6541565 29.301711,4.0674259 28.617143,3.3828573 28.185563,2.9512771 26.924606,2.88 19.721143,2.88 13.61981,2.88 11.223146,2.984854 10.944,3.264 c -0.587557,0.5875568 -0.524153,6.86567 0.07272,7.200099 0.745623,0.417778 17.129387,0.185799 17.654457,-0.24997 z"
     id="path189"
     inkscape:connector-curvature="0" />
</svg>
