<?xml version="1.0" encoding="UTF-8" standalone="no"?>
<!-- Created with Inkscape (http://www.inkscape.org/) -->

<svg
   xmlns:dc="http://purl.org/dc/elements/1.1/"
   xmlns:cc="http://creativecommons.org/ns#"
   xmlns:rdf="http://www.w3.org/1999/02/22-rdf-syntax-ns#"
   xmlns:svg="http://www.w3.org/2000/svg"
   xmlns="http://www.w3.org/2000/svg"
   xmlns:sodipodi="http://sodipodi.sourceforge.net/DTD/sodipodi-0.dtd"
   xmlns:inkscape="http://www.inkscape.org/namespaces/inkscape"
   version="1.1"
   id="svg128"
   width="32"
   height="24.32"
   viewBox="0 0 32 24.32"
   sodipodi:docname="char-icon-1.svg"
   inkscape:version="0.92.3 (unknown)">
  <path
     style="stroke-width:0.31999999"
     d="m 0,19.874691 v -4.44531 l 0.806566,-0.202435 c 0.443611,-0.11134 1.091611,-0.04988 1.44,0.136568 0.54356,0.290905 0.633434,0.674684 0.633434,2.704888 0,3.104536 0.367484,3.514214 2.942804,3.280692 2.992598,-0.271359 3.756148,0.228366 3.275432,2.143693 L 8.890619,24.32 H 4.445309 0 Z m 22.72,3.348166 c 0,-1.730479 0.723369,-2.209474 3.054159,-2.022381 C 28.598178,21.427162 28.8,21.240836 28.8,18.406956 28.8,15.909363 29.212271,15.04 30.396685,15.04 31.960012,15.04 32,15.160568 32,19.874236 V 24.32 H 27.36 22.72 Z M 0.56,9.059416 C 0.060479,8.928877 0,8.431773 0,4.4565363 V 0 h 4.498399 4.498399 l -0.0984,1.36 -0.0984,1.36 -2.652517,0.16 C 4.271772,2.9931429 3.40635,3.1805713 3.192381,3.52 3.02596,3.784 2.887593,5.0389334 2.884898,6.3087411 2.880798,8.260852 2.784387,8.668652 2.261035,8.948741 1.617223,9.293299 1.487322,9.301751 0.559998,9.059416 Z M 29.302857,8.777143 C 28.930483,8.404768 28.8,7.617524 28.8,5.7432394 28.8,3.2917178 28.77415,3.2057056 27.977309,3.0057111 27.524829,2.8921459 26.505195,2.8882423 25.711455,2.9970411 23.701253,3.2725701 23.04,2.8447731 23.04,1.2687459 V 0 H 27.52 32 V 4.4426781 C 32,8.779395 31.98283,8.889958 31.28,9.078309 30.178835,9.373409 29.848861,9.323147 29.302857,8.777143 Z"
     id="path168"
     inkscape:connector-curvature="0" />
</svg>
