<?xml version="1.0" encoding="UTF-8" standalone="no"?>
<!-- Created with Inkscape (http://www.inkscape.org/) -->

<svg
   xmlns:dc="http://purl.org/dc/elements/1.1/"
   xmlns:cc="http://creativecommons.org/ns#"
   xmlns:rdf="http://www.w3.org/1999/02/22-rdf-syntax-ns#"
   xmlns:svg="http://www.w3.org/2000/svg"
   xmlns="http://www.w3.org/2000/svg"
   xmlns:sodipodi="http://sodipodi.sourceforge.net/DTD/sodipodi-0.dtd"
   xmlns:inkscape="http://www.inkscape.org/namespaces/inkscape"
   version="1.1"
   id="svg158"
   width="30.08"
   height="19.49721"
   viewBox="0 0 30.08 19.49721"
   sodipodi:docname="char-icon-4.svg"
   inkscape:version="0.92.3 (unknown)">
  <path
     style="stroke-width:0.31999999"
     d="M 0,19.066954 C 0,18.677968 1.785319,16.295559 7.351185,9.2572087 8.39503,7.9372092 10.444041,5.3149478 11.904542,3.4299618 13.365044,1.5449756 14.776,0.00149306 15.04,5.6364922e-7 15.304,-0.00148944 17.824,2.9513116 20.64,6.5617858 c 2.816,3.6104742 6.092,7.7697042 7.279999,9.2427342 1.188,1.473029 2.16,2.906487 2.16,3.185462 0,0.455775 -1.525634,0.507227 -15.039999,0.507227 C 2.657282,19.497209 0,19.421189 0,19.066954 Z M 25.157625,16.47455 c 0.103666,-0.270147 -0.666133,-1.549275 -1.850043,-3.074107 -4.669443,-6.0140655 -6.118898,-7.8907071 -7.031033,-9.1032338 -0.529591,-0.704 -1.093681,-1.28 -1.253533,-1.28 -0.159852,0 -0.617425,0.4464154 -1.016828,0.9920342 -1.250927,1.7088724 -3.516062,4.6475593 -6.141696,7.9679656 -1.391732,1.76 -2.666698,3.378166 -2.833257,3.595925 -0.16656,0.217759 -0.219245,0.613759 -0.117079,0.88 0.27303,0.711504 19.970661,0.732343 20.243469,0.02142 z"
     id="path231"
     inkscape:connector-curvature="0" />
</svg>
