<?xml version="1.0" encoding="UTF-8" standalone="no"?>
<!-- Created with Inkscape (http://www.inkscape.org/) -->

<svg
   xmlns:dc="http://purl.org/dc/elements/1.1/"
   xmlns:cc="http://creativecommons.org/ns#"
   xmlns:rdf="http://www.w3.org/1999/02/22-rdf-syntax-ns#"
   xmlns:svg="http://www.w3.org/2000/svg"
   xmlns="http://www.w3.org/2000/svg"
   xmlns:sodipodi="http://sodipodi.sourceforge.net/DTD/sodipodi-0.dtd"
   xmlns:inkscape="http://www.inkscape.org/namespaces/inkscape"
   version="1.1"
   id="svg148"
   width="32"
   height="24.319962"
   viewBox="0 0 32 24.319962"
   sodipodi:docname="char-icon-3.svg"
   inkscape:version="0.92.3 (unknown)">
  <path
     style="stroke-width:0.31999999"
     d="m 0,22.88 c 0,-1.35798 0.05012,-1.439905 0.88,-1.438333 0.484,9.28e-4 7.432,-0.0058 15.44,-0.01488 8.008,-0.0091 14.811999,-0.0099 15.119999,-0.0017 C 31.888165,21.436987 32,21.727533 32,22.879961 v 1.44 H 16 0 Z M 0.56,13.518119 C 0.146275,13.425739 0,13.073919 0,12.171227 c 0,-1.00961 0.125064,-1.247732 0.72,-1.370871 0.396,-0.08196 7.596,-0.183514 16,-0.225666 L 32,10.49805 v 1.648498 1.648497 L 16.56,13.719105 C 8.068,13.677335 0.868,13.586894 0.56,13.518119 Z M 15.12,2.9568667 0,2.8737337 V 1.4368667 0 h 16 16 v 1.44 c 0,1.0297582 -0.129291,1.44 -0.453828,1.44 -0.249605,0 -0.645605,0.036 -0.88,0.08 C 30.431777,3.004 23.436,3.00259 15.12,2.95687 Z"
     id="path210"
     inkscape:connector-curvature="0" />
</svg>
